<svg width="200" height="200" xmlns="http://www.w3.org/2000/svg">
  <defs>
    <filter id="roughFilter" x="-50%" y="-50%" width="200%" height="200%">
      <feTurbulence type="fractalNoise" baseFrequency="0.05" numOctaves="2" seed="5" />
      <feDisplacementMap in="SourceGraphic" scale="20" />
    </filter>
  </defs>
  
  <!-- Main splatter shapes -->
  <g filter="url(#roughFilter)">
    <path d="M100,100 C130,80 160,120 120,150 C80,180 50,130 80,100 C110,70 70,50 100,100 Z" fill="#000" />
    <path d="M80,70 C100,30 130,50 110,80 C90,110 60,90 80,70 Z" fill="#000" />
    <path d="M120,60 C150,40 160,80 130,90 C100,100 90,80 120,60 Z" fill="#000" />
  </g>
  
  <!-- Small ink dots -->
  <circle cx="140" cy="120" r="3" fill="#000" />
  <circle cx="60" cy="110" r="2" fill="#000" />
  <circle cx="90" cy="150" r="4" fill="#000" />
  <circle cx="130" cy="40" r="3" fill="#000" />
  <circle cx="50" cy="60" r="2" fill="#000" />
</svg>
